<?xml version="1.0" encoding="utf-8"?>
<!-- Generator: Adobe Illustrator 24.0.3, SVG Export Plug-In . SVG Version: 6.00 Build 0)  -->
<svg version="1.1" xmlns="http://www.w3.org/2000/svg" xmlns:xlink="http://www.w3.org/1999/xlink" x="0px" y="0px"
	 viewBox="0 0 50 50" enable-background="new 0 0 50 50" xml:space="preserve">
<g id="_x32_4_X_24_BOX">
	<rect x="26" y="26" fill="none" width="24" height="24"/>
</g>
<g id="ICON_OUTLINES">
	<g>
		<path fill="#E31837" d="M26.2,20.4v-2.9h-2.5v2.9c-2.2,0.5-3.8,2.1-3.8,4.1c0,2.3,1.7,3.8,4.9,4.2c2.7,0.4,2.7,1.3,2.7,1.8
			c0,0.9-1.2,1.7-2.6,1.7s-2.6-0.8-2.6-1.7V30H20v0.5c0,2,1.6,3.6,3.8,4.1v2.9h2.5v-2.9c2.2-0.5,3.8-2.1,3.8-4.1
			c0-2.3-1.7-3.8-4.9-4.2c-2.7-0.4-2.7-1.3-2.7-1.8c0-0.9,1.2-1.7,2.6-1.7s2.6,0.8,2.6,1.7V25H30v-0.5C30,22.5,28.4,20.9,26.2,20.4z
			"/>
		<path fill="#E31837" d="M42.5,17.5V5h-10v5L25,2.5L0.1,27.5h7.5v20h34.9v-20h7.5L42.5,17.5z M40,25v2.5V45H10V27.5V25H7.5H6.1
			L25,6.1l5.7,5.7l4.3,4.3v-6V7.5h5v10v0.8l0.5,0.7l4.5,6h-2.5H40z"/>
	</g>
</g>
</svg>
